<svg width="48" height="48" viewBox="0 0 48 48" fill="none" xmlns="http://www.w3.org/2000/svg">
<g clip-path="url(#clip0_261_2074)">
<path d="M25.346 23.9811L40.9479 8.36685C41.3271 7.9874 41.3271 7.38029 40.9479 7.01981C40.5688 6.64037 39.9621 6.64037 39.6019 7.01981L23.6399 22.9755C23.583 23.0325 23.5451 23.0894 23.4882 23.1653C23.4124 23.2032 23.3555 23.2412 23.2986 23.317C22.9195 23.6965 22.9195 24.3036 23.2986 24.6641L39.583 40.9613C39.7726 41.151 40.019 41.2459 40.2655 41.2459C40.5119 41.2459 40.7584 41.151 40.9479 40.9613C41.3271 40.5819 41.3271 39.9748 40.9479 39.6143L25.346 23.9811Z" fill="#E92D30"/>
<path d="M23.9811 14.8933C23.4503 14.8933 23.0332 14.4569 23.0332 13.9447V0.948617C23.0332 0.417391 23.4692 0 23.9811 0C24.4929 0 24.9289 0.436364 24.9289 0.948617V13.9447C24.9479 14.4569 24.5119 14.8933 23.9811 14.8933Z" fill="#FFDA00"/>
<path d="M23.9811 48C23.4503 48 23.0332 47.5636 23.0332 47.0513V34.0553C23.0332 33.5241 23.4692 33.1067 23.9811 33.1067C24.5119 33.1067 24.9289 33.5431 24.9289 34.0553V47.0513C24.9479 47.5636 24.5119 48 23.9811 48Z" fill="#F6921E"/>
<path d="M47.981 24.1708C47.981 24.1518 47.981 24.1139 47.981 24.0949C47.981 24.0569 48 24.019 48 23.981C48 23.9431 48 23.9052 47.981 23.8672C47.981 23.8482 47.981 23.8103 47.981 23.7913C47.9431 23.6206 47.8673 23.4498 47.7156 23.298L41.2702 16.8475C40.891 16.468 40.2844 16.468 39.9052 16.8475C39.5261 17.2269 39.5261 17.834 39.9052 18.2135L44.7393 23.0514H34.0853C33.5545 23.0514 33.1375 23.4878 33.1375 24C33.1375 24.5312 33.5735 24.9486 34.0853 24.9486H44.7204L39.8863 29.7866C39.5071 30.166 39.5071 30.7731 39.8863 31.1526C40.0758 31.3423 40.3223 31.4372 40.5687 31.4372C40.8152 31.4372 41.0616 31.3423 41.2512 31.1526L47.6967 24.702C47.8483 24.5312 47.9431 24.3795 47.981 24.1708C47.981 24.1897 47.981 24.1897 47.981 24.1708Z" fill="#122434"/>
<path d="M8.37914 7.01981C7.99999 6.64037 7.39336 6.64037 7.03317 7.01981C6.65402 7.39926 6.65402 8.00638 7.03317 8.36685L21.6872 23.0325H0.947867C0.417062 23.0325 0 23.4688 0 23.9811C0 24.5123 0.436019 24.9297 0.947867 24.9297H21.6872L7.03317 39.5953C6.65402 39.9748 6.65402 40.5819 7.03317 40.9423C7.22274 41.1321 7.46919 41.2269 7.71563 41.2269C7.96208 41.2269 8.20853 41.1321 8.3981 40.9423L25.3649 23.9621L8.37914 7.01981Z" fill="#122434"/>
</g>
<defs>
<clipPath id="clip0_261_2074">
<rect width="48" height="48" fill="white"/>
</clipPath>
</defs>
</svg>
